<svg width="266" height="104" viewBox="0 0 266 104" fill="none" xmlns="http://www.w3.org/2000/svg">
<path d="M2 59.2673C6.77294 59.2149 11.201 58.4547 15.8714 57.4757C26.2971 55.2901 36.8642 53.7606 47.2001 51.1452C57.2365 48.6056 66.7666 44.9338 76.2433 40.7935C83.1435 37.7788 90.6619 34.3288 98.2719 33.7663C104.167 33.3305 110.149 35.1604 115.67 37.0111C126.365 40.5962 136.783 45.249 147.295 49.3536C155.487 52.5526 163.434 56.1204 172.239 57.1572C185.132 58.6753 197.826 55.994 210.208 52.5785C222.397 49.2164 235.453 45.4728 246.561 39.2606C254.268 34.9511 261.607 27.998 263.369 18.9952C264.33 14.0803 264.548 7.98522 261.418 3.74631C257.907 -1.00872 251.014 5.18601 248.177 7.66802C237.277 17.2039 228.474 28.9915 218.188 39.1611C208.625 48.6165 198.175 56.9224 187.273 64.7418C172.109 75.6185 156.209 85.9651 139.196 93.6668C126.139 99.578 107.847 106.711 94.4494 97.7876C87.2992 93.0256 84.0876 85.7033 82.8637 77.5421" stroke="black" stroke-width="4" stroke-linecap="round"/>
</svg>
